<svg width="74" height="72" viewBox="0 0 124 122" fill="none" xmlns="http://www.w3.org/2000/svg">
<path d="M84.898 56.4006C85.3278 32.6327 62 0 62 0C62 0 40 32.7585 40 56.4006C40 95.3333 62 110 62 110C62 110 84.1941 95.3333 84.898 56.4006Z" fill="#222222" fill-opacity="0.7"/>
<path d="M106 44.0001C106 27.8232 98.6668 14.6667 98.6668 14.6667C98.6668 14.6667 54.6668 36.6667 54.6668 80.6668C54.6668 92.4747 62.0001 110 62.0001 110C62.0001 110 106 88.0001 106 44.0001Z" fill="black" fill-opacity="0.7"/>
<path d="M115.593 65.1732C119.808 51.4978 117.037 38.4649 117.037 38.4649C117.037 38.4649 74.1082 45.5981 62.6433 82.7943C59.5666 92.7764 61.1994 109.503 61.1994 109.503C61.1994 109.503 104.128 102.369 115.593 65.1732Z" fill="black" fill-opacity="0.7"/>
<path d="M7.91298 65.5603C3.54914 51.9317 6.17817 38.8694 6.17817 38.8694C6.17817 38.8694 49.1819 45.5345 61.0513 82.6035C64.2366 92.5514 62.7861 109.294 62.7861 109.294C62.7861 109.294 19.7823 102.629 7.91298 65.5603Z" fill="black" fill-opacity="0.7"/>
<path d="M18 44.0001C18.0001 27.8232 25.3334 14.6667 25.3334 14.6667C25.3334 14.6667 69.3334 36.6667 69.3334 80.6668C69.3334 92.4747 62 110 62 110C62 110 17.9999 88.0001 18 44.0001Z" fill="black" fill-opacity="0.7"/>
</svg>
